
<svg width="431px" height="302px" viewBox="0 0 431 302" version="1.1" xmlns="http://www.w3.org/2000/svg" xmlns:xlink="http://www.w3.org/1999/xlink">
    <defs>
        <radialGradient cx="115.610813%" cy="54.4479173%" fx="115.610813%" fy="54.4479173%" r="323.528602%" gradientTransform="translate(1.156108,0.544479),scale(0.390361,1.000000),translate(-1.156108,-0.544479)" id="radialGradient-03bi18i8wr-1">
            <stop stop-color="#FFFFFF" offset="0%"></stop>
            <stop stop-color="#000000" offset="100%"></stop>
        </radialGradient>
        <radialGradient cx="97.2357694%" cy="-57.860738%" fx="97.2357694%" fy="-57.860738%" r="323.531741%" gradientTransform="translate(0.972358,-0.578607),scale(0.390355,1.000000),translate(-0.972358,0.578607)" id="radialGradient-03bi18i8wr-2">
            <stop stop-color="#FFFFFF" offset="0%"></stop>
            <stop stop-color="#000000" offset="100%"></stop>
        </radialGradient>
        <linearGradient x1="27.3010506%" y1="67.8697481%" x2="103.126455%" y2="35.0945552%" id="linearGradient-03bi18i8wr-3">
            <stop stop-color="#FFFFFF" offset="0%"></stop>
            <stop stop-color="#000000" offset="100%"></stop>
        </linearGradient>
        <linearGradient x1="343.90189%" y1="-32.5319976%" x2="-141.761476%" y2="112.573504%" id="linearGradient-03bi18i8wr-4">
            <stop stop-color="#FFFFFF" offset="0%"></stop>
            <stop stop-color="#000000" offset="100%"></stop>
        </linearGradient>
        <linearGradient x1="195.434129%" y1="-18.2600793%" x2="-68.9369191%" y2="91.690298%" id="linearGradient-03bi18i8wr-5">
            <stop stop-color="#FFFFFF" offset="0%"></stop>
            <stop stop-color="#000000" offset="100%"></stop>
        </linearGradient>
        <linearGradient x1="-7.5273752%" y1="63.1746901%" x2="120.537339%" y2="26.7492328%" id="linearGradient-03bi18i8wr-6">
            <stop stop-color="#FFFFFF" offset="0%"></stop>
            <stop stop-color="#000000" offset="100%"></stop>
        </linearGradient>
        <radialGradient cx="-1646.51923%" cy="-2880.6876%" fx="-1646.51923%" fy="-2880.6876%" r="19433.595%" gradientTransform="translate(-16.465192,-28.806876),scale(0.220209,1.000000),translate(16.465192,28.806876)" id="radialGradient-03bi18i8wr-7">
            <stop stop-color="#FFFFFF" offset="0%"></stop>
            <stop stop-color="#000000" offset="100%"></stop>
        </radialGradient>
    </defs>
    <g id="Page-1" stroke="none" stroke-width="1" fill="none" fill-rule="evenodd">
        <g id="Layer_1" transform="translate(0.566005, 0.648000)" fill-rule="nonzero">
            <path d="M0,141.736 L121.598,140.815 L146.707,115.707 L210.231,52.186 C215.091,47.326 222.969,47.326 227.829,52.186 L278.777,103.134 L178.078,136.448 L312.775,137.131 L324.32,137.189 L360.241,136.549 L363.09,136.496 L231.945,5.35100003 C224.811,-1.78299997 213.245,-1.78399997 206.112,5.35000003 L99.215,112.246 C98.468,112.993 0.593,140.9 0,141.736 Z" id="Path" fill="url(#radialGradient-03bi18i8wr-1)"></path>
            <path d="M429.808,159.181 L308.209,160.101 L283.1,185.21 L219.579,248.731 C214.718,253.592 206.841,253.591 201.98,248.73 L151.031,197.783 L251.73,164.469 L117.034,163.784 L105.487,163.726 L69.567,164.367 L66.716,164.418 L197.863,295.565 C204.998,302.7 216.563,302.698 223.695,295.566 L330.592,188.669 C331.341,187.921 429.216,160.017 429.808,159.181 Z" id="Path" fill="url(#radialGradient-03bi18i8wr-2)"></path>
            <path d="M219.029,45.15 C223.258,45.15 227.234,46.797 230.225,49.788 L285.062,104.625 L198.801,133.163 L324.259,133.8 L355.049,133.251 L229.548,7.74800003 C226.737,4.93800003 223.001,3.39000003 219.027,3.39000003 C215.054,3.39000003 211.318,4.93700003 208.509,7.74700003 L129.087,87.169 C133.433,94.697 139.077,102.752 146.373,111.246 L207.833,49.788 C210.824,46.797 214.8,45.15 219.029,45.15 Z" id="Path" fill="url(#linearGradient-03bi18i8wr-3)"></path>
            <path d="M101.613,114.643 C100.663,115.593 100.645,115.611 54.623,129.011 C44.33,132.008 32.896,135.337 23.266,138.168 L120.183,137.434 L146.373,111.246 C139.077,102.752 133.433,94.697 129.087,87.169 L101.613,114.643 Z" id="Path" fill="url(#linearGradient-03bi18i8wr-4)"></path>
            <path d="M272.753,200.351 L221.976,251.128 C218.985,254.119 215.009,255.766 210.78,255.766 C206.551,255.766 202.574,254.118 199.583,251.126 L144.745,196.291 L220.1,171.361 C218.11,170.126 216.148,168.895 214.232,167.667 L105.548,167.114 L74.758,167.664 L200.261,293.168 C203.071,295.978 206.808,297.526 210.781,297.526 C214.754,297.526 218.49,295.979 221.3,293.169 L300.912,213.556 C291.017,209.133 281.635,204.729 272.753,200.351 Z" id="Path" fill="url(#linearGradient-03bi18i8wr-5)"></path>
            <path d="M328.195,186.272 C329.144,185.322 329.163,185.304 375.191,171.902 C385.481,168.906 396.913,165.577 406.541,162.748 L309.623,163.481 L272.752,200.352 C281.634,204.73 291.016,209.134 300.91,213.557 L328.195,186.272 Z" id="Path" fill="url(#linearGradient-03bi18i8wr-6)"></path>
            <path d="M231.007,167.754 L214.232,167.669 C216.149,168.896 218.11,170.128 220.1,171.363 L231.007,167.754 Z" id="Path" fill="url(#radialGradient-03bi18i8wr-7)"></path>
        </g>
    </g>
</svg>